<svg width="960" height="444" viewBox="0 0 960 444" fill="none" xmlns="http://www.w3.org/2000/svg">
    <path d="M804.8 0.146606C726.656 0.146606 661.984 58.2586 651.312 133.507C647.632 133.251 643.952 132.947 640.208 132.947C637.92 132.947 635.712 133.187 633.456 133.283C622.672 58.1466 558.064 0.146606 480 0.146606C401.888 0.146606 337.248 58.2106 326.528 133.411C323.424 133.219 320.352 132.931 317.2 132.931C314.32 132.931 311.504 133.203 308.656 133.363C297.92 58.1786 233.296 0.130615 155.2 0.130615C69.616 0.130615 0 69.7626 0 155.331C0 240.899 69.632 310.531 155.2 310.531C158.08 310.531 160.896 310.259 163.744 310.099C174.48 385.283 239.104 443.331 317.2 443.331C395.312 443.331 459.952 385.267 470.672 310.067C473.776 310.259 476.848 310.547 480 310.547C482.288 310.547 484.496 310.307 486.752 310.211C497.52 385.347 562.128 443.347 640.208 443.347C718.352 443.347 783.024 385.235 793.696 309.987C797.376 310.243 801.056 310.547 804.8 310.547C890.384 310.547 960 240.915 960 155.347C960 69.7786 890.368 0.146606 804.8 0.146606ZM32 155.347C32 87.4106 87.264 32.1466 155.2 32.1466C217.376 32.1466 268.784 78.4666 277.088 138.387C214.016 155.299 166.8 210.915 162.496 278.179C160.08 278.323 157.664 278.547 155.2 278.547C87.264 278.547 32 223.283 32 155.347ZM277.184 171.747C270.944 218.403 238.544 256.803 195.216 271.747C201.472 225.091 233.856 186.691 277.184 171.747ZM317.2 411.347C255.024 411.347 203.616 365.027 195.312 305.107C258.384 288.195 305.6 232.579 309.904 165.315C312.336 165.171 314.736 164.947 317.2 164.947C319.936 164.947 322.608 165.187 325.296 165.363C329.6 232.339 376.448 287.763 439.12 304.915C430.912 364.931 379.44 411.347 317.2 411.347ZM358.064 172.051C400.864 187.171 432.832 225.219 439.136 271.443C396.336 256.323 364.368 218.275 358.064 172.051ZM471.904 278.147C467.6 211.171 420.752 155.747 358.08 138.595C366.304 78.5786 417.76 32.1626 480 32.1626C542.016 32.1626 593.328 78.2586 601.824 137.955C537.872 154.307 489.808 210.371 485.504 278.291C483.664 278.355 481.856 278.547 480 278.547C477.264 278.547 474.592 278.323 471.904 278.147ZM602.08 171.043C595.984 218.707 562.624 257.923 518.112 272.451C524.224 224.787 557.584 185.571 602.08 171.043ZM640.208 411.347C578.192 411.347 526.88 365.251 518.384 305.555C582.336 289.203 630.4 233.139 634.704 165.219C636.544 165.139 638.352 164.947 640.208 164.947C643.552 164.947 646.832 165.187 650.112 165.443C654.416 231.763 700.416 286.787 762.208 304.467C754.176 364.691 702.592 411.347 640.208 411.347ZM682.976 172.755C724.608 188.243 755.6 225.539 762.032 270.739C720.4 255.251 689.408 217.955 682.976 172.755ZM804.8 278.547C801.456 278.547 798.176 278.307 794.896 278.051C790.592 211.731 744.592 156.707 682.8 139.027C690.832 78.8026 742.4 32.1466 804.8 32.1466C872.736 32.1466 928 87.4106 928 155.347C928 223.283 872.736 278.547 804.8 278.547Z" fill="#F9F9F9"/>
</svg>